<svg version="1" xmlns="http://www.w3.org/2000/svg" width="682.667" height="682.667" viewBox="0 0 512.000000 512.000000"><path d="M49.5 54.9C38.3 57.4 36.9 58 27.9 64c-8.9 6-10 7.1-16.2 16.5-6.3 9.7-6.6 10.4-9.1 22.9L0 116.3v169.6l.1 169.6 2.3 11.2c2.1 10.3 2.8 12 8.1 20.1 5.2 7.9 6.8 9.5 14.7 14.7 8.1 5.3 9.8 6 20.1 8.1l11.2 2.3 227.8.1H512V52H367.5l62 62 62 62h-402l62-62 62-62-76 .1-76 .1-12 2.7zm-20.1 136c1.2 1 4.6 3.3 7.6 5.1 6.8 3.9 8 5.4 8 10 0 4.7-3.5 8.2-8.2 8.3-7.3.2-23.8-12.2-23.8-17.9.1-8.1 10-11.4 16.4-5.5zm65 14.1c3.8 3.9 3.8 8.9.1 12.5-2.3 2.4-3 2.5-14.4 2.5-11 0-12.2-.2-14.6-2.3-3.6-3-3.8-8.6-.6-12.1 3-3.2 4.5-3.5 16.9-3.2 9.4.1 10.4.3 12.6 2.6zm53 0c3.8 3.9 3.8 8.9.1 12.5-2.3 2.4-3 2.5-14.4 2.5-11.2 0-12.2-.2-14.7-2.4-3.6-3.1-3.8-8.4-.5-12 3-3.2 4.5-3.5 16.9-3.2 9.4.1 10.4.3 12.6 2.6zm53 0c3.8 3.9 3.8 8.9.1 12.5-2.3 2.4-3 2.5-14.4 2.5-11.2 0-12.2-.2-14.7-2.4-3.6-3.1-3.8-8.4-.5-12 3-3.2 4.5-3.5 16.9-3.2 9.4.1 10.4.3 12.6 2.6zm53-.1c3.5 3.3 3.6 9.2.1 12.6-2.3 2.4-3 2.5-14.2 2.5-12.9 0-15.5-.9-17.4-5.7-1.3-3.4.5-8.7 3.4-10.1 4.2-2 5.2-2.2 15.4-1.9 9.2.2 10.4.5 12.7 2.6zm53 0c3.5 3.3 3.6 9.2.1 12.6-2.3 2.4-3 2.5-14.2 2.5-12.9 0-15.5-.9-17.4-5.7-1.3-3.4.5-8.7 3.4-10.1 4.2-2 5.2-2.2 15.4-1.9 9.2.2 10.4.5 12.7 2.6zm53.2.4c3.2 3.8 3.2 9-.1 12.2-2.3 2.4-3 2.5-14.3 2.5-10.4 0-12.3-.3-14.5-2-3.1-2.5-4.3-7-2.6-10.2 2.5-4.8 5.9-5.8 18.8-5.5 9.9.2 10.4.4 12.7 3zm49.9-1.9c6.1 2.6 7.5 9.8 2.9 14.1-2.5 2.4-3.4 2.5-14.4 2.5-10.2 0-12.1-.3-14.3-2-5.9-4.7-3.9-12.6 3.8-15.2 3.9-1.2 18.5-.8 22 .6zm53 0c6.1 2.6 7.5 9.8 2.9 14.1-2.5 2.4-3.3 2.5-14.6 2.5-11.9 0-12 0-14.9-2.9-1.6-1.6-2.9-3.9-2.9-5.1 0-3.8 2.9-7.9 6.3-8.9 5.1-1.5 19.3-1.3 23.2.3zm-35.6 107.8c9.8 4.7 14.5 12.4 14.5 23.9.1 6.9-.2 8-3.4 13.3-10.4 17.1-34.3 17.3-45.2.3-3.1-4.8-3.3-5.7-3.3-13.7 0-8 .2-8.9 3.4-13.8 7.6-11.9 21.4-16 34-10zM33 458c10.9 7.1 12 8.2 12 12.9 0 4.7-3.5 8.1-8.2 8.1-4 0-14.3-5.6-19.5-10.6-4.7-4.5-5.5-8.2-2.7-12.2 3.8-5.4 7.8-5 18.4 1.8zm61.4 11.9c4.4 4.1 3.7 11-1.5 13.6-3.3 1.8-21.2 2.1-25.4.5-3.7-1.4-5.8-6.8-4.3-11 1.6-4.9 5.4-6.1 18-5.8 9.6.3 10.9.5 13.2 2.7zm53 0c4.4 4.1 3.7 11-1.5 13.6-3.3 1.8-21.2 2.1-25.4.5-3.7-1.4-5.8-6.8-4.3-11 1.6-4.9 5.4-6.1 18-5.8 9.6.3 10.9.5 13.2 2.7zm53 0c1.8 1.7 2.6 3.5 2.6 5.7 0 7.7-3.1 9.4-16.9 9.4-11.7 0-14.4-.8-16.6-5-1.3-2.6-1.4-3.7-.4-6.7 1.7-5.2 5.2-6.4 18.1-6.1 9.7.3 10.9.5 13.2 2.7zm53 0c4.3 4 3.5 11.1-1.5 13.6-4.1 2.2-23.6 2.1-26.7-.1-3.4-2.3-4.5-6-3.1-10.1 1.7-5.2 5.2-6.4 18.1-6.1 9.7.3 10.9.5 13.2 2.7zm53 0c1.8 1.7 2.6 3.5 2.6 5.7 0 7.8-3 9.4-17.8 9.4-9.4 0-11.3-.3-13.5-2-3.1-2.5-4.2-6.5-2.6-10.3 1.9-4.6 5.8-5.7 18.1-5.5 9.7.3 10.9.5 13.2 2.7zm53 0c1.9 1.8 2.6 3.5 2.6 6-.1 7.3-3.6 9.1-17.8 9.1-9.4 0-11.3-.3-13.5-2-3.1-2.5-4.2-6.5-2.6-10.3 1.9-4.6 5.8-5.8 18.1-5.5 9.7.3 10.9.5 13.2 2.7zm53 0c1.9 1.8 2.6 3.5 2.6 6-.1 7.3-3.6 9.1-17.8 9.1-9.4 0-11.3-.3-13.5-2-3.1-2.5-4.2-6.5-2.6-10.3 1.9-4.6 5.8-5.8 18.1-5.5 9.7.3 10.9.5 13.2 2.7zm53 0c1.9 1.8 2.6 3.5 2.6 6-.1 7.3-3.6 9.1-17.8 9.1-9.4 0-11.3-.3-13.5-2-3.1-2.5-4.2-6.5-2.6-10.3 1.9-4.6 5.8-5.8 18.1-5.5 9.7.3 10.9.5 13.2 2.7z"/></svg>